# xmcd
#
# Track frame offsets: 
#        150
#        10832
#        22560
#        33492
#        42870
#        54137
#        66167
#        79310
#        90980
#        103330
#        114487
#        127007
#        137912
#        147675
#        161497
#        173047
#        184890
#        195322
#        205915
#        217330
#
# Disc length: 3034 seconds
#
# Revision: 0
# Processed by: cddbd v1.5.2PL0 Copyright (c) Steve Scherf et al.
# Submitted via: ExactAudioCopy v0.99pb4
#
DISCID=1a0bd814
DTITLE=Ferlin Husky - Wings Of A Dove
DYEAR=1900
DGENRE=Country
TTITLE0=Wings Of A Dove
TTITLE1=Feel Better All Over
TTITLE2=Gone
TTITLE3=My Reason For Living
TTITLE4=Somebody Save Me
TTITLE5=Timber, I'm Falling
TTITLE6=I Hear Little Rock Callin'
TTITLE7=You Pushed Me Too Far
TTITLE8=That's Why I Love You So Much
TTITLE9=Heavenly Sunshine
TTITLE10=I'll Baby Sit With You
TTITLE11=A Fallen Star
TTITLE12=Draggin' The River
TTITLE13=The Waltz You Saved For Me
TTITLE14=I Know It Was You
TTITLE15=I Could Sing All Night
TTITLE16=Once
TTITLE17=Just For You
TTITLE18=Every Step Of The Way
TTITLE19=Sweet Misery
EXTD=
EXTT0=
EXTT1=
EXTT2=
EXTT3=
EXTT4=
EXTT5=
EXTT6=
EXTT7=
EXTT8=
EXTT9=
EXTT10=
EXTT11=
EXTT12=
EXTT13=
EXTT14=
EXTT15=
EXTT16=
EXTT17=
EXTT18=
EXTT19=
PLAYORDER=
